<svg xmlns="http://www.w3.org/2000/svg" xmlns:xlink="http://www.w3.org/1999/xlink" width="2160" zoomAndPan="magnify" viewBox="0 0 1620 1151.999944" height="1536" preserveAspectRatio="xMidYMid meet" version="1.0"><defs><clipPath id="id1"><path d="M 1523 511 L 1620 511 L 1620 985 L 1523 985 Z M 1523 511 " clip-rule="nonzero"/></clipPath><clipPath id="id2"><path d="M 1575.867188 1093.777344 L 1456.980469 456.777344 L 1788.75 394.855469 L 1907.640625 1031.855469 Z M 1575.867188 1093.777344 " clip-rule="nonzero"/></clipPath><clipPath id="id3"><path d="M 1575.867188 1093.777344 L 1456.980469 456.777344 L 1788.75 394.855469 L 1907.640625 1031.855469 Z M 1575.867188 1093.777344 " clip-rule="nonzero"/></clipPath><clipPath id="id4"><path d="M 1616 404 L 1620 404 L 1620 710 L 1616 710 Z M 1616 404 " clip-rule="nonzero"/></clipPath><clipPath id="id5"><path d="M 1575.867188 1093.777344 L 1456.980469 456.777344 L 1788.75 394.855469 L 1907.640625 1031.855469 Z M 1575.867188 1093.777344 " clip-rule="nonzero"/></clipPath><clipPath id="id6"><path d="M 1575.867188 1093.777344 L 1456.980469 456.777344 L 1788.75 394.855469 L 1907.640625 1031.855469 Z M 1575.867188 1093.777344 " clip-rule="nonzero"/></clipPath><clipPath id="id7"><path d="M 1498 221 L 1620 221 L 1620 422 L 1498 422 Z M 1498 221 " clip-rule="nonzero"/></clipPath><clipPath id="id8"><path d="M 1342.859375 209.78125 L 1922.457031 -80 L 2078.078125 231.265625 L 1498.484375 521.046875 Z M 1342.859375 209.78125 " clip-rule="nonzero"/></clipPath><clipPath id="id9"><path d="M 1342.859375 209.78125 L 1922.457031 -80 L 2078.078125 231.265625 L 1498.484375 521.046875 Z M 1342.859375 209.78125 " clip-rule="nonzero"/></clipPath><clipPath id="id10"><path d="M 1592 139 L 1620 139 L 1620 412 L 1592 412 Z M 1592 139 " clip-rule="nonzero"/></clipPath><clipPath id="id11"><path d="M 1342.859375 209.78125 L 1922.457031 -80 L 2078.078125 231.265625 L 1498.484375 521.046875 Z M 1342.859375 209.78125 " clip-rule="nonzero"/></clipPath><clipPath id="id12"><path d="M 1342.859375 209.78125 L 1922.457031 -80 L 2078.078125 231.265625 L 1498.484375 521.046875 Z M 1342.859375 209.78125 " clip-rule="nonzero"/></clipPath><clipPath id="id13"><path d="M 1550 53 L 1620 53 L 1620 331 L 1550 331 Z M 1550 53 " clip-rule="nonzero"/></clipPath><clipPath id="id14"><path d="M 1342.859375 209.78125 L 1922.457031 -80 L 2078.078125 231.265625 L 1498.484375 521.046875 Z M 1342.859375 209.78125 " clip-rule="nonzero"/></clipPath><clipPath id="id15"><path d="M 1342.859375 209.78125 L 1922.457031 -80 L 2078.078125 231.265625 L 1498.484375 521.046875 Z M 1342.859375 209.78125 " clip-rule="nonzero"/></clipPath><clipPath id="id16"><path d="M 1472 310 L 1620 310 L 1620 505 L 1472 505 Z M 1472 310 " clip-rule="nonzero"/></clipPath><clipPath id="id17"><path d="M 1342.859375 209.78125 L 1922.457031 -80 L 2078.078125 231.265625 L 1498.484375 521.046875 Z M 1342.859375 209.78125 " clip-rule="nonzero"/></clipPath><clipPath id="id18"><path d="M 1342.859375 209.78125 L 1922.457031 -80 L 2078.078125 231.265625 L 1498.484375 521.046875 Z M 1342.859375 209.78125 " clip-rule="nonzero"/></clipPath><clipPath id="id19"><path d="M 1586 0 L 1620 0 L 1620 130 L 1586 130 Z M 1586 0 " clip-rule="nonzero"/></clipPath><clipPath id="id20"><path d="M 1482.710938 -117.128906 L 2123.023438 -216.636719 L 2174.847656 116.863281 L 1534.535156 216.367188 Z M 1482.710938 -117.128906 " clip-rule="nonzero"/></clipPath><clipPath id="id21"><path d="M 1482.710938 -117.128906 L 2123.023438 -216.636719 L 2174.847656 116.863281 L 1534.535156 216.367188 Z M 1482.710938 -117.128906 " clip-rule="nonzero"/></clipPath><clipPath id="id22"><path d="M 1525 44 L 1620 44 L 1620 198 L 1525 198 Z M 1525 44 " clip-rule="nonzero"/></clipPath><clipPath id="id23"><path d="M 1482.710938 -117.128906 L 2123.023438 -216.636719 L 2174.847656 116.863281 L 1534.535156 216.367188 Z M 1482.710938 -117.128906 " clip-rule="nonzero"/></clipPath><clipPath id="id24"><path d="M 1482.710938 -117.128906 L 2123.023438 -216.636719 L 2174.847656 116.863281 L 1534.535156 216.367188 Z M 1482.710938 -117.128906 " clip-rule="nonzero"/></clipPath><clipPath id="id25"><path d="M 1491 846.535156 L 1620 846.535156 L 1620 1152 L 1491 1152 Z M 1491 846.535156 " clip-rule="nonzero"/></clipPath><clipPath id="id26"><path d="M 1600 862 L 1620 862 L 1620 991 L 1600 991 Z M 1600 862 " clip-rule="nonzero"/></clipPath><clipPath id="id27"><path d="M 1544.628906 917.789062 L 1772.753906 810.722656 L 1828.519531 929.539062 L 1600.394531 1036.605469 Z M 1544.628906 917.789062 " clip-rule="nonzero"/></clipPath><clipPath id="id28"><path d="M 1544.628906 917.789062 L 1772.753906 810.722656 L 1828.519531 929.539062 L 1600.394531 1036.605469 Z M 1544.628906 917.789062 " clip-rule="nonzero"/></clipPath><clipPath id="id29"><path d="M 1589 960 L 1620 960 L 1620 1027 L 1589 1027 Z M 1589 960 " clip-rule="nonzero"/></clipPath><clipPath id="id30"><path d="M 1544.628906 917.789062 L 1772.753906 810.722656 L 1828.519531 929.539062 L 1600.394531 1036.605469 Z M 1544.628906 917.789062 " clip-rule="nonzero"/></clipPath><clipPath id="id31"><path d="M 1544.628906 917.789062 L 1772.753906 810.722656 L 1828.519531 929.539062 L 1600.394531 1036.605469 Z M 1544.628906 917.789062 " clip-rule="nonzero"/></clipPath></defs><g clip-path="url(#id1)"><g clip-path="url(#id2)"><g clip-path="url(#id3)"><path fill="#e0e0e0" d="M 1548.992188 718.347656 C 1527.972656 747.570312 1518.457031 785.003906 1525.578125 823.15625 C 1537.957031 889.480469 1596.425781 935.640625 1661.65625 934.65625 C 1675.875 969.234375 1712.824219 990.34375 1750.988281 983.222656 C 1794.722656 975.058594 1823.597656 932.902344 1815.429688 889.132812 L 1755.035156 565.542969 C 1748.378906 529.882812 1714.042969 506.328125 1678.40625 512.976562 C 1644.757812 519.257812 1621.90625 550.238281 1625.066406 583.695312 C 1623.3125 583.925781 1621.566406 584.203125 1619.8125 584.53125 C 1567.378906 594.316406 1532.753906 644.863281 1542.550781 697.34375 C 1543.929688 704.722656 1546.113281 711.75 1548.992188 718.347656 " fill-opacity="1" fill-rule="evenodd"/></g></g></g><g clip-path="url(#id4)"><g clip-path="url(#id5)"><g clip-path="url(#id6)"><path fill="#a6a6a6" d="M 1799.480469 453.226562 L 1831.519531 624.890625 C 1838.726562 663.5 1813.257812 700.6875 1774.683594 707.886719 C 1737.277344 714.867188 1701.191406 691.105469 1692.472656 654.453125 C 1655.578125 645.195312 1625.546875 615.246094 1618.113281 575.414062 C 1609.003906 526.621094 1636.871094 479.429688 1681.890625 462.800781 C 1682.46875 435.296875 1702.222656 411.007812 1730.300781 405.765625 C 1762.472656 399.761719 1793.472656 421.027344 1799.480469 453.226562 " fill-opacity="1" fill-rule="evenodd"/></g></g></g><g clip-path="url(#id7)"><g clip-path="url(#id8)"><g clip-path="url(#id9)"><path fill="#e0e0e0" d="M 1553.5625 231.941406 C 1603.019531 207.210938 1663.226562 227.253906 1687.933594 276.671875 C 1712.636719 326.082031 1692.546875 386.277344 1643.089844 411.003906 C 1593.632812 435.730469 1533.421875 415.683594 1508.71875 366.273438 C 1484.011719 316.855469 1504.105469 256.667969 1553.5625 231.941406 " fill-opacity="1" fill-rule="evenodd"/></g></g></g><g clip-path="url(#id10)"><g clip-path="url(#id11)"><g clip-path="url(#id12)"><path fill="#e0e0e0" d="M 1931.863281 139.457031 L 1592.222656 309.265625 L 1643.089844 411.003906 L 1982.726562 241.195312 L 1931.863281 139.457031 " fill-opacity="1" fill-rule="evenodd"/></g></g></g><g clip-path="url(#id13)"><g clip-path="url(#id14)"><g clip-path="url(#id15)"><path fill="#e0e0e0" d="M 1626.925781 67.71875 C 1695.574219 33.394531 1779.140625 61.214844 1813.433594 129.808594 C 1847.726562 198.394531 1819.839844 281.941406 1751.191406 316.261719 C 1682.546875 350.582031 1598.972656 322.765625 1564.683594 254.175781 C 1530.386719 185.585938 1558.28125 102.039062 1626.925781 67.71875 " fill-opacity="1" fill-rule="evenodd"/></g></g></g><g clip-path="url(#id16)"><g clip-path="url(#id17)"><g clip-path="url(#id18)"><path fill="#737373" d="M 1500.578125 411.574219 C 1491.042969 375.496094 1507.753906 336.398438 1542.464844 319.042969 C 1567.566406 306.496094 1596.109375 308.292969 1618.738281 321.316406 C 1620.542969 320.175781 1622.417969 319.109375 1624.367188 318.136719 C 1655.277344 302.683594 1692.90625 315.210938 1708.34375 346.089844 C 1723.785156 376.972656 1711.226562 414.585938 1680.316406 430.042969 L 1542.402344 498.992188 C 1518.457031 510.964844 1489.3125 501.261719 1477.351562 477.339844 C 1465.390625 453.414062 1475.117188 424.273438 1499.0625 412.304688 C 1499.566406 412.050781 1500.070312 411.808594 1500.578125 411.574219 " fill-opacity="1" fill-rule="evenodd"/></g></g></g><g clip-path="url(#id19)"><g clip-path="url(#id20)"><g clip-path="url(#id21)"><path fill="#e0e0e0" d="M 1858.78125 -132.601562 C 1830.210938 -154.496094 1793.085938 -165.144531 1754.730469 -159.183594 C 1688.0625 -148.824219 1640.152344 -91.78125 1639.15625 -26.550781 C 1604.164062 -13.390625 1581.941406 22.902344 1587.902344 61.265625 C 1594.734375 105.226562 1635.996094 135.367188 1679.992188 128.53125 L 2005.261719 77.984375 C 2041.109375 72.414062 2065.699219 38.808594 2060.128906 2.984375 C 2054.875 -30.839844 2024.601562 -54.621094 1991.0625 -52.476562 C 1990.886719 -54.234375 1990.664062 -55.992188 1990.390625 -57.753906 C 1982.199219 -110.460938 1932.722656 -146.601562 1879.972656 -138.402344 C 1872.550781 -137.25 1865.464844 -135.277344 1858.78125 -132.601562 " fill-opacity="1" fill-rule="evenodd"/></g></g></g><g clip-path="url(#id22)"><g clip-path="url(#id23)"><g clip-path="url(#id24)"><path fill="#64cb90" d="M 1563.089844 111.972656 C 1564.769531 79.113281 1589.300781 50.769531 1623.113281 45.515625 C 1647.558594 41.714844 1671.046875 50.890625 1686.554688 67.90625 C 1688.378906 67.429688 1690.238281 67.039062 1692.132812 66.746094 C 1722.242188 62.066406 1750.476562 82.6875 1755.152344 112.765625 C 1759.824219 142.851562 1739.179688 171.070312 1709.074219 175.75 L 1574.746094 196.625 C 1551.421875 200.246094 1529.546875 184.269531 1525.925781 160.96875 C 1522.304688 137.664062 1538.300781 115.800781 1561.621094 112.175781 C 1562.109375 112.101562 1562.601562 112.035156 1563.089844 111.972656 " fill-opacity="1" fill-rule="evenodd"/></g></g></g><g clip-path="url(#id25)"><path fill="#00afef" d="M 1629.699219 989.828125 C 1638.890625 909.214844 1707.433594 846.511719 1790.511719 846.511719 C 1850.523438 846.511719 1902.949219 879.234375 1930.902344 927.78125 C 1934.347656 927.511719 1937.832031 927.371094 1941.351562 927.371094 C 2001.019531 927.371094 2051.519531 966.878906 2068.105469 1021.125 C 2107.273438 1029.398438 2136.707031 1064.179688 2136.707031 1105.78125 C 2136.707031 1153.539062 2097.925781 1192.304688 2050.160156 1192.304688 L 1567.53125 1192.304688 C 1525.59375 1192.304688 1491.554688 1158.269531 1491.554688 1116.355469 C 1491.554688 1074.441406 1525.59375 1040.40625 1567.53125 1040.40625 C 1569.71875 1040.40625 1571.894531 1040.5 1574.042969 1040.679688 C 1585.605469 1017.570312 1605.460938 999.316406 1629.699219 989.828125 " fill-opacity="1" fill-rule="evenodd"/></g><path fill="#64cb90" d="M 1870.671875 493.292969 C 1872.554688 464.746094 1851.425781 440.046875 1823.5 438.125 C 1820.957031 437.949219 1818.457031 437.964844 1816 438.167969 C 1815.039062 412.617188 1795.328125 391.421875 1769.816406 389.667969 C 1762.21875 389.152344 1754.90625 390.402344 1748.257812 393.101562 C 1733.34375 371.785156 1709.570312 357.203125 1681.992188 355.308594 C 1638.808594 352.339844 1600.773438 381.460938 1590.214844 422.722656 C 1583.492188 419.222656 1575.992188 417.011719 1567.992188 416.464844 C 1536.386719 414.296875 1509.050781 438.710938 1506.925781 470.988281 C 1504.800781 503.28125 1528.6875 531.210938 1560.292969 533.394531 C 1563.96875 533.652344 1567.589844 533.539062 1571.121094 533.09375 C 1573.261719 558.238281 1593.058594 578.71875 1618.46875 580.46875 C 1627.894531 581.113281 1636.898438 579.105469 1644.757812 575.058594 C 1653.878906 589.726562 1669.480469 599.902344 1687.738281 601.164062 C 1712.199219 602.84375 1734.019531 588.003906 1742.738281 565.957031 C 1750.179688 572.433594 1759.648438 576.609375 1770.148438 577.324219 C 1793.074219 578.90625 1813.285156 563.476562 1818.972656 541.601562 C 1845.9375 542.21875 1868.847656 521.050781 1870.671875 493.292969 Z M 1870.671875 493.292969 " fill-opacity="1" fill-rule="nonzero"/><path fill="#00afef" d="M 2018.6875 616.277344 C 2027.882812 584.15625 2009.308594 550.34375 1977.203125 540.742188 C 1974.289062 539.867188 1971.355469 539.234375 1968.441406 538.804688 C 1973.582031 509.367188 1955.8125 479.917969 1926.480469 471.160156 C 1917.746094 468.550781 1908.914062 468.046875 1900.507812 469.367188 C 1888.355469 441.066406 1864.195312 418.117188 1832.507812 408.644531 C 1782.875 393.816406 1731.390625 417.023438 1708.953125 461.375 C 1701.988281 455.589844 1693.769531 451.082031 1684.5625 448.328125 C 1648.246094 437.476562 1610.382812 458.128906 1599.980469 494.46875 C 1589.582031 530.808594 1610.597656 569.058594 1646.910156 579.910156 C 1651.136719 581.171875 1655.386719 582.003906 1659.625 582.433594 C 1655.945312 611.726562 1674.019531 640.390625 1703.207031 649.117188 C 1714.039062 652.359375 1725.027344 652.429688 1735.199219 649.890625 C 1742.238281 669.066406 1757.921875 684.824219 1778.925781 691.097656 C 1807.050781 699.492188 1836.125 688.3125 1851.699219 665.433594 C 1858.792969 674.792969 1868.804688 682.082031 1880.871094 685.6875 C 1907.230469 693.566406 1934.570312 681.292969 1946.5625 657.800781 C 1977.835938 665.636719 2009.738281 647.507812 2018.6875 616.277344 Z M 2018.6875 616.277344 " fill-opacity="1" fill-rule="nonzero"/><path fill="#a6a6a6" d="M 1576.148438 559.011719 C 1577.628906 533.019531 1599.304688 513.171875 1624.546875 514.679688 C 1626.84375 514.820312 1629.085938 515.125 1631.269531 515.597656 C 1634.972656 492.648438 1654.96875 475.796875 1678.027344 477.175781 C 1684.890625 477.59375 1691.3125 479.574219 1696.957031 482.773438 C 1712.675781 465.261719 1735.601562 454.859375 1760.523438 456.351562 C 1799.539062 458.675781 1830.378906 489.390625 1835.25 527.855469 C 1841.65625 525.472656 1848.625 524.351562 1855.863281 524.78125 C 1884.421875 526.488281 1906.199219 551.707031 1904.515625 581.101562 C 1902.835938 610.492188 1878.328125 632.941406 1849.773438 631.246094 C 1846.441406 631.046875 1843.207031 630.53125 1840.105469 629.726562 C 1835.394531 652.171875 1815.382812 668.375 1792.429688 667.011719 C 1783.910156 666.511719 1776.066406 663.640625 1769.472656 659.078125 C 1759.675781 671.261719 1744.5625 678.640625 1728.058594 677.648438 C 1705.953125 676.328125 1688.050781 660.398438 1682.695312 639.484375 C 1675.3125 644.464844 1666.363281 647.136719 1656.882812 646.5625 C 1636.167969 645.328125 1619.777344 629.050781 1617.105469 608.644531 C 1592.886719 606.058594 1574.714844 584.285156 1576.148438 559.011719 Z M 1576.148438 559.011719 " fill-opacity="1" fill-rule="nonzero"/><g clip-path="url(#id26)"><g clip-path="url(#id27)"><g clip-path="url(#id28)"><path fill="#e0e0e0" d="M 1683.304688 870.945312 C 1670.25 865.890625 1655.230469 865.972656 1641.566406 872.386719 C 1617.8125 883.53125 1606.160156 910.054688 1612.914062 934.511719 C 1601.289062 943.246094 1596.957031 959.21875 1603.375 972.886719 C 1610.722656 988.550781 1629.417969 995.292969 1645.089844 987.9375 L 1760.976562 933.546875 C 1773.746094 927.554688 1779.253906 912.328125 1773.265625 899.5625 C 1767.609375 887.511719 1753.710938 881.941406 1741.429688 886.40625 C 1741.171875 885.769531 1740.894531 885.136719 1740.601562 884.507812 C 1731.785156 865.730469 1709.375 857.644531 1690.582031 866.464844 C 1687.9375 867.707031 1685.507812 869.214844 1683.304688 870.945312 " fill-opacity="1" fill-rule="evenodd"/></g></g></g><g clip-path="url(#id29)"><g clip-path="url(#id30)"><g clip-path="url(#id31)"><path fill="#64cb90" d="M 1599.652344 994.523438 C 1596.6875 982.074219 1602.75 968.816406 1614.796875 963.164062 C 1623.503906 959.074219 1633.273438 959.933594 1640.921875 964.589844 C 1641.546875 964.214844 1642.199219 963.867188 1642.875 963.546875 C 1653.601562 958.515625 1666.394531 963.128906 1671.421875 973.84375 C 1676.453125 984.5625 1671.828125 997.351562 1661.101562 1002.386719 L 1613.246094 1024.847656 C 1604.9375 1028.746094 1595.027344 1025.171875 1591.128906 1016.867188 C 1587.234375 1008.566406 1590.816406 998.660156 1599.125 994.757812 C 1599.300781 994.675781 1599.472656 994.597656 1599.652344 994.523438 " fill-opacity="1" fill-rule="evenodd"/></g></g></g></svg>